Coordinates
version=1
nRows=15
nColumns=41
inDegrees=no

If the header above contains a line with 'inDegrees', this indicates whether rotational values are in degrees (yes) or radians (no).

endheader
time	pelvis_tx	pelvis_tz	pelvis_ty	pelvis_tilt	pelvis_list	pelvis_rotation	hip_flexion_r	hip_adduction_r	hip_rotation_r	knee_angle_r	ankle_angle_r	subtalar_angle_r	mtp_angle_r	hip_flexion_l	hip_adduction_l	hip_rotation_l	knee_angle_l	ankle_angle_l	subtalar_angle_l	mtp_angle_l	lumbar_extension	lumbar_bending	lumbar_rotation	neck_extension	neck_bending	neck_rotation	arm_flex_r	arm_add_r	arm_rot_r	elbow_flex_r	pro_sup_r	wrist_flex_r	wrist_dev_r	arm_flex_l	arm_add_l	arm_rot_l	elbow_flex_l	pro_sup_l	wrist_flex_l	wrist_dev_l
4.0	-0.301025390625	3.720703125	2.03515625	0.031420851203981526	-0.09093457364132962	3.1177019925855616	0.021567899133455914	-0.05894843550229959	-0.19298724657761263	0.13167873588265322	-0.010072551405352077	0.12532707269842946	0.4782780049436253	0.34767233260323777	0.03347168622574281	-0.1806863451021219	1.0624606742433553	-0.2479273814357879	-0.4418182932584609	0.5507274399953936	-0.017011741331828256	-0.04105536089858755	-0.02844995614805523	0.05129106347845358	0.02734698614656344	-0.02622091337036809	-0.04085546550623931	-0.09623680549376801	-0.3193477466433492	0.33904907764223635	1.6357180513886136	-0.45204162179959506	-0.1811890411687386	-0.10619020057020523	-0.18993655933605813	0.044185930742051086	0.38758199587543674	1.5602414791138386	-0.3695557682670657	-0.05077618416884633
4.04167	-0.299072265625	3.71875	2.0390625	0.041216800393434117	-0.11959835812968644	3.1274591121886592	-0.05339051599813516	-0.07019222670063942	-0.20400860450473868	0.07392684252854065	-0.007795634165649324	0.14835190481774296	0.4194747561682743	0.4558730634949433	0.06257691421457898	-0.17103968623206092	0.9793628898009745	-0.12776661073956042	-0.40447610707616033	0.6605260363872872	-0.009696465368549734	-0.08173155540723788	0.02212934174916784	0.047565915054461505	0.032240457184360256	-0.03550129656436429	0.05339413091844214	-0.10360852483120087	-0.3364030374034215	0.4104205302533942	1.6922448418909544	-0.43833255606679367	-0.21116119285489351	-0.10224427420883964	-0.23213700707144191	-0.04559890929358665	0.3947932766931721	1.5880352450358532	-0.3187651430497776	-0.046842736975532095
4.08333	-0.28857421875	3.638671875	2.0	0.04308764282020139	-0.11893991103219381	3.1031428694589183	-0.12859731523276563	-0.06456213644765	-0.19944941040847047	0.040982162374641806	0.03769493489348539	0.18919380621674428	0.41341357808800266	0.4997000198513327	0.11240308763272175	-0.2195709618211561	0.7089734708379041	-0.1081416843219388	-0.28277856243091554	0.6310687121655179	-0.011819474317962375	-0.11191643583912289	0.09122311341068856	0.045958957551752055	0.03242420359320923	-0.04167476243926593	0.1242562104237166	-0.07839569006580072	-0.318980076243874	0.5088056752587687	1.7267714482583314	-0.46230173887246623	-0.2667030451348663	-0.2470275548681925	-0.17864287156685088	-0.20589481513530541	0.44617369600080115	1.68204362424117	-0.24823793870926164	-0.028886079443172813
4.125	-0.28564453125	3.623046875	1.984375	0.05760423626852762	-0.13103450154305274	3.0303829407243175	-0.17922851472434942	-0.08707207357885584	-0.18119383074560433	0.02370123071080621	0.03836565893049597	0.22771334286336897	0.4037598660382216	0.5055266987241246	0.13624135511402502	-0.2046416898021289	0.36932446202595937	-0.12650713442376196	-0.31953158184308683	0.4931263370440467	0.005213996577805302	-0.1262749858703849	0.15699221040839972	0.07042414976536382	0.04406007266593276	-0.04307393669651326	0.19482315648953452	-0.10255447913833438	-0.2623218055311604	0.5938358541252591	1.6842163184623211	-0.48410364566828196	-0.33142948428380314	-0.4302716450903733	-0.22344880144577328	-0.4333286835544591	0.4521551092414199	1.7906103175173382	-0.2730056318665935	0.0027485191052436103
4.16667	-0.28662109375	3.611328125	1.9658203125	0.07302198123824177	-0.12991554528473825	2.9876533782707684	-0.2309018540515374	-0.10953160129123489	-0.18182821120652723	0.01905544340969567	0.052518988529316836	0.2762799623729642	0.4276537138769976	0.5044827448473186	0.13133825831808396	-0.12461575874344656	0.1154470412213866	-0.1299068294663248	-0.4347455300416652	0.294545528838971	0.026468930843494443	-0.12699053427770196	0.2013521556855607	0.07618169338080405	0.051508249934873275	-0.03421548741192374	0.2528738255272278	-0.12581040234457808	-0.17320701366782834	0.6785487067206588	1.6322019781087962	-0.4576939653088717	-0.37421039210840623	-0.5261160715595316	-0.2490156413647665	-0.5732369608747045	0.465865186870575	1.8646875354444967	-0.3243173223176875	0.03379596553060716
4.20833	-0.287841796875	3.607421875	1.94921875	0.08126829674196445	-0.1295819417737769	2.973528533706856	-0.2734184286218062	-0.13838594169626803	-0.17459458243722376	0.042942076259855355	0.06778822927238146	0.28444801262012936	0.4566075471765422	0.5238203703904855	0.13145814465895544	-0.07219593409792047	0.05422389411623296	-0.11098637838418865	-0.49768069378254726	0.2443042628816519	0.04001362693630228	-0.13742797745890015	0.2252276107645196	0.07667812442379685	0.06445461793385429	-0.03981638928635148	0.27777176840017037	-0.13749120315787133	-0.1397008131882268	0.7581503801107381	1.5820435475224233	-0.4504961214167177	-0.38910089139833237	-0.5791107459566186	-0.23594315055015647	-0.6230672074651546	0.46091110547526426	1.9005774523105794	-0.30566201454155856	0.05541147686853521
4.25	-0.296875	3.609375	1.9404296875	0.09105346183736973	-0.14540545269100358	2.9787951440591125	-0.2984756402030191	-0.17346288603741492	-0.15706459083586333	0.11647072374108514	0.006201771836545356	0.23577894255422502	0.46501925981602565	0.5315864954555611	0.13409186501334594	-0.07449406914938944	0.12425104690129474	-0.16492398644837852	-0.48661359941790044	0.29971725726428594	0.06483337958146218	-0.16033484063297432	0.2528740004446972	0.0796428370826806	0.06984189849222976	-0.05594952172618974	0.2468730598037837	-0.14707409422725848	-0.16543674637227268	0.806013926011751	1.543724838337786	-0.47197885709664056	-0.38918896226624844	-0.5995981888694698	-0.24737966217782026	-0.6410651744200617	0.4391449930142949	1.9106803229387421	-0.23347418101729214	0.05958438038778943
4.29167	-0.31005859375	3.609375	1.9404296875	0.09136349350348771	-0.1543798072870164	2.9665350167358677	-0.27793640020804866	-0.20666064282759544	-0.1402760101372389	0.2669232279726872	-0.12694642112484236	0.1371323166504108	0.4768858289810593	0.5112712305121905	0.14973818029517866	-0.06670524434502409	0.19212251547216197	-0.23133198296046809	-0.45520277847938756	0.3169952693388352	0.09006963044148097	-0.1652488078345416	0.26634080865203374	0.06763909731205331	0.0692943585184834	-0.07020689143521815	0.2039973264391597	-0.11310764556472841	-0.1554751325991725	0.8336427043789532	1.5365688102123667	-0.5077687311479293	-0.3869414074488463	-0.6041082603777767	-0.22616210366534917	-0.6680007528262304	0.407276226064898	1.8908394246016305	-0.2002561358242159	0.06360134393368072
4.33333	-0.322021484375	3.615234375	1.94921875	0.07970165738287527	-0.15848880714422853	2.960669289825953	-0.18296651299757338	-0.23310397475140968	-0.0888531415220698	0.4942818157676132	-0.38183004007043914	-0.013697551018722744	0.39622875537028485	0.45466536288123727	0.18071500240874067	-0.056902775741546605	0.24676542745004637	-0.21485848590101705	-0.41448419459373204	0.41473161764160493	0.0941075443542061	-0.1718942051130412	0.257763171136224	0.058640588075427824	0.0801849025863662	-0.08091282677791956	0.1556479316012177	-0.06064326024905786	-0.17045992500192503	0.7912973658037976	1.5553358081353752	-0.5422957565814188	-0.37329104709526995	-0.5652773227256377	-0.2174849223001415	-0.6220974264624136	0.3738210451663726	1.849861889191856	-0.20721552983752184	0.043776010694404205
4.375	-0.328857421875	3.640625	1.96484375	0.08115028323331641	-0.17731902834631064	2.9920719579322244	-0.032913962397363106	-0.24675152846741957	-0.04300910790082228	0.7417264481583653	-0.5682440118300358	-0.15424089246678596	0.3389634352680634	0.3810875941139213	0.19948570221458503	-0.05734985292929656	0.260721004659507	-0.16928414667887529	-0.4012517116375235	0.5104576536803737	0.0964607157317603	-0.18535928307001695	0.22807416472818903	0.057598907174292835	0.08364115632976249	-0.08627643436544985	0.09101553407268947	-0.08049001868051231	-0.20287885520133667	0.6922512620909897	1.5833756367444236	-0.5575171530773647	-0.35157271489157016	-0.4776987391525499	-0.23757526773503035	-0.5312296580652963	0.37737015993089684	1.808679408401423	-0.2683256934442607	0.017441272457241766
4.41667	-0.330810546875	3.646484375	1.9765625	0.06508826356293818	-0.15548953879656202	3.0424168786181376	0.1160868736645676	-0.20676866077989556	-0.09006532096235643	0.9729996688245186	-0.5100657184701411	-0.2132398435727973	0.4361616275186356	0.26733033694688685	0.20956983472724747	-0.04444657947717645	0.23147084839245635	-0.10567495174771581	-0.34426104422612464	0.5807724875821504	0.06585596251567194	-0.18085545261630562	0.16217928751756291	0.06585596251567194	0.08559509772663	-0.09258320254817905	0.038873116291039844	-0.06272719656728398	-0.22095127845499155	0.5703969739231104	1.6216380640025716	-0.5494573724037218	-0.32084540700734154	-0.3481643004106222	-0.22507663531925792	-0.3480921847688611	0.3449169613002546	1.7690427710738623	-0.2997829270071596	0.0062383194442486994
4.45833	-0.329345703125	3.630859375	1.9765625	0.04354102960970341	-0.11981530762516757	3.138345255687606	0.2275115958650139	-0.17766487339480372	-0.09236191898240413	1.0584124550918625	-0.3526473373307323	-0.21418083449460165	0.5397027895441115	0.13710699558763473	0.19806193284244306	-0.0987401546559079	0.19908261931366011	-0.04704211060318912	-0.2522453006098667	0.6094973422108731	0.02053520993438218	-0.12538023296141595	0.06107272001440359	0.04890021860383398	0.04169769949193819	-0.06431755738741843	-0.026695661065028964	-0.09939430816988071	-0.2675379830326534	0.43216029306784665	1.6348393118300584	-0.530013785519781	-0.2684999155427804	-0.10766839567703346	-0.22724792310253805	-0.09967001965483631	0.4554309442561765	1.7043649972602397	-0.4171349116300194	-0.02456321046039857
4.5	-0.324951171875	3.623046875	1.9794921875	0.04059152047014414	-0.12084206545213583	3.100103247574392	0.3648457211206788	-0.17879614945386474	-0.1460015536099936	1.048923142730751	-0.1907998363049027	-0.21380443344456593	0.5811979566048238	0.04419386614516141	0.17505581117930027	-0.06568361779002697	0.15266833924392276	-0.002097225490468504	-0.2132398435727973	0.6255053138044238	0.007266128270027372	-0.10903438927227363	0.01687507699612511	0.048367042840282815	0.018415907075117106	-0.04346382445922172	-0.058459757362548714	-0.04609158753163789	-0.2738637255721349	0.35627157184835756	1.6354983874060798	-0.5153937749833608	-0.23989835503531728	-0.11602938627961457	-0.17703185495693563	-0.0009287724180378883	0.40779956656898764	1.6720345846999627	-0.4605115988902637	-0.022731799856500826
4.54167	-0.316650390625	3.603515625	1.970703125	0.027094886588527434	-0.07588768412370461	3.138959184826085	0.39620969918888116	-0.16625043506999873	-0.14663758813518712	0.8204579087706132	-0.0776897993421296	-0.10959655868299038	0.6078101030285662	-0.08029075050466539	0.15325520546899254	-0.06456618034237313	0.07437196801909618	0.021823997063222317	-0.20042720426029814	0.5591848890723977	-0.024429705147662295	-0.04470212475678859	-0.06545954509631534	0.04326689884620527	-0.027369965331955515	-0.0010268243269421506	-0.11209792517842698	-0.086780588092353	-0.27572248809843525	0.286139509211325	1.5891441021294106	-0.5321909286722806	-0.20925668374271214	0.007969070996723393	-0.2245339187007671	0.10148414585239977	0.53853485960724	1.658943057359183	-0.6059352584358012	-0.0376623554749069
4.58333	-0.310791015625	3.572265625	1.953125	0.022697761355167545	-0.05771819135190137	3.138585791098654	0.4141257712019699	-0.14773862229801749	-0.19450806504816917	0.5483580195077202	-0.06611349505002012	0.0011744476839329347	0.5504966824252675	-0.18156671722794726	0.1410003446866286	-0.07704735141679167	0.029189962251381596	0.027860598245133233	-0.22527243553789952	0.5395449668456811	-0.03765873332515257	-0.033021339395884565	-0.1195554687111707	0.042726467016193204	-0.024083357580507045	0.02964470244871591	-0.17236504423984744	-0.09623680549376801	-0.31916393485018146	0.26582575795986063	1.5831536590422768	-0.5439709498133505	-0.21253899323645156	0.14977651058286012	-0.25829655898120774	0.25448640945494905	0.5338741897873363	1.607737682586005	-0.6528069531583491	-0.10932805029317258
